<?xml version="1.0" standalone="no"?>
<!DOCTYPE svg PUBLIC "-//W3C//DTD SVG 20010904//EN"
 "http://www.w3.org/TR/2001/REC-SVG-20010904/DTD/svg10.dtd">
<svg version="1.0" xmlns="http://www.w3.org/2000/svg"
 width="1080.000000pt" height="1080.000000pt" viewBox="0 0 1080.000000 1080.000000"
 preserveAspectRatio="xMidYMid meet">
<metadata>
Created by potrace 1.14, written by Peter Selinger 2001-2017
</metadata>
<g transform="translate(0.000000,1080.000000) scale(0.100000,-0.100000)"
fill="#000000" stroke="none">
<path d="M0 5400 l0 -5400 5400 0 5400 0 0 5400 0 5400 -5400 0 -5400 0 0
-5400z m5380 2511 l0 -368 -127 -6 c-188 -7 -264 -41 -332 -147 -44 -68 -75
-172 -91 -305 -6 -49 -22 -308 -36 -575 -29 -576 -38 -633 -122 -794 -67 -129
-173 -221 -325 -282 -43 -17 -80 -34 -83 -36 -2 -3 15 -11 38 -18 173 -51 328
-190 397 -355 57 -135 68 -229 96 -765 25 -503 34 -604 61 -706 33 -128 105
-224 198 -265 43 -19 74 -23 189 -27 l137 -4 0 -374 0 -374 -217 0 c-120 0
-271 5 -336 11 -411 36 -674 254 -776 643 -32 121 -39 197 -76 816 -19 322
-37 612 -41 645 -20 201 -80 314 -195 364 -26 12 -92 26 -148 32 l-101 12 0
367 0 367 88 6 c229 15 319 109 352 369 5 46 26 349 45 673 19 325 42 633 50
686 60 393 277 656 613 744 110 28 170 33 460 34 l282 1 0 -369z m740 349
c708 -54 1091 -424 1181 -1140 7 -56 12 -242 13 -450 l1 -355 -452 -3 -452 -2
-3 377 c-5 413 -7 434 -68 559 -40 82 -138 175 -226 215 -81 37 -190 59 -290
59 l-74 0 0 375 0 375 118 0 c64 0 178 -5 252 -10z m1190 -4037 c0 -219 -5
-447 -10 -507 -45 -469 -214 -796 -514 -991 -111 -72 -219 -119 -361 -155
-146 -37 -270 -51 -495 -53 l-185 -2 -3 373 -2 372 72 0 c287 2 488 133 561
365 30 95 37 207 37 601 l0 394 450 0 450 0 0 -397z"/>
</g>
</svg>
